<svg id="visual" viewBox="0 0 900 450" width="900" height="450" xmlns="http://www.w3.org/2000/svg" xmlns:xlink="http://www.w3.org/1999/xlink" version="1.1"><rect x="0" y="0" width="900" height="450" fill="#18191a"></rect><path d="M0 85L21.5 91.7C43 98.3 86 111.7 128.8 118.7C171.7 125.7 214.3 126.3 257.2 116.7C300 107 343 87 385.8 89.2C428.7 91.3 471.3 115.7 514.2 119.2C557 122.7 600 105.3 642.8 93.7C685.7 82 728.3 76 771.2 76.2C814 76.3 857 82.7 878.5 85.8L900 89L900 0L878.5 0C857 0 814 0 771.2 0C728.3 0 685.7 0 642.8 0C600 0 557 0 514.2 0C471.3 0 428.7 0 385.8 0C343 0 300 0 257.2 0C214.3 0 171.7 0 128.8 0C86 0 43 0 21.5 0L0 0Z" fill="#fff" stroke-linecap="round" stroke-linejoin="miter"></path></svg>